<mxfile host="app.diagrams.net" modified="2021-01-25T12:56:40.568Z" agent="5.0 (Windows NT 10.0; Win64; x64) AppleWebKit/537.36 (KHTML, like Gecko) Chrome/87.0.4280.141 Safari/537.36" etag="zbE5DxGtU_l2CL87Kqla" version="14.2.7" type="github">
  <diagram id="wzK5atatUBoBwsayawXc" name="Page-1">
    <mxGraphModel dx="1422" dy="766" grid="1" gridSize="10" guides="1" tooltips="1" connect="1" arrows="1" fold="1" page="1" pageScale="1" pageWidth="850" pageHeight="1100" math="0" shadow="0">
      <root>
        <mxCell id="0" />
        <mxCell id="1" parent="0" />
        <mxCell id="2v8rWHHwC5_YxCFb3BTJ-3" style="edgeStyle=orthogonalEdgeStyle;rounded=0;orthogonalLoop=1;jettySize=auto;html=1;entryX=0;entryY=0.5;entryDx=0;entryDy=0;" edge="1" parent="1" source="2v8rWHHwC5_YxCFb3BTJ-1" target="2v8rWHHwC5_YxCFb3BTJ-2">
          <mxGeometry relative="1" as="geometry" />
        </mxCell>
        <mxCell id="2v8rWHHwC5_YxCFb3BTJ-1" value="" style="rounded=0;whiteSpace=wrap;html=1;" vertex="1" parent="1">
          <mxGeometry x="120" y="220" width="120" height="60" as="geometry" />
        </mxCell>
        <mxCell id="2v8rWHHwC5_YxCFb3BTJ-2" value="" style="ellipse;whiteSpace=wrap;html=1;aspect=fixed;" vertex="1" parent="1">
          <mxGeometry x="460" y="210" width="80" height="80" as="geometry" />
        </mxCell>
      </root>
    </mxGraphModel>
  </diagram>
</mxfile>
